<svg width="18" height="18" viewBox="0 0 18 18" fill="none" xmlns="http://www.w3.org/2000/svg">
<path d="M17 9.99994C17.5523 9.99994 18 10.4477 18 10.9999V16.9999C18 17.5522 17.5523 17.9999 17 17.9999H1C0.447715 17.9999 3.7746e-07 17.5522 0 16.9999V10.9999C2.41411e-08 10.4477 0.447715 9.99994 1 9.99994C1.55228 9.99994 2 10.4477 2 10.9999V15.9999H16V10.9999C16 10.4477 16.4477 9.99994 17 9.99994ZM8.29297 0.292908C8.68349 -0.0976162 9.31651 -0.0976164 9.70703 0.292908L12.707 3.29291C13.0976 3.68343 13.0976 4.31645 12.707 4.70697C12.3165 5.09749 11.6835 5.09749 11.293 4.70697L10 3.414V12.9999C10 13.5522 9.55229 13.9999 9 13.9999C8.44771 13.9999 8 13.5522 8 12.9999V3.414L6.70703 4.70697C6.31651 5.09749 5.68349 5.09749 5.29297 4.70697C4.90244 4.31645 4.90244 3.68343 5.29297 3.29291L8.29297 0.292908Z" fill="white"/>
</svg>
